<svg width="75" height="75" viewBox="0 0 75 75" fill="none" xmlns="http://www.w3.org/2000/svg">
<circle cx="37.5001" cy="37.5" r="37.5" fill="url(#paint0_linear_1_111)"/>
<g clip-path="url(#clip0_1_111)">
<path d="M38.7394 24.0696C38.4902 24.1736 38.3276 24.4162 38.3276 24.6854L38.3276 31.9883L21.6665 31.9883C21.2986 31.9883 21.0001 32.2869 21.0001 32.6548L21.0001 43.3179C21.0001 43.6858 21.2986 43.9844 21.6665 43.9844L38.3276 43.9844L38.3276 51.3152C38.3276 51.5845 38.4903 51.8271 38.7382 51.931C38.9874 52.0337 39.274 51.9777 39.4646 51.7871L52.8042 38.4915C52.9295 38.3662 53.0001 38.1969 53.0001 38.0197C53.0001 37.8424 52.9295 37.6731 52.8055 37.5478L39.466 24.2136C39.2753 24.023 38.9887 23.9657 38.7394 24.0696Z" fill="white"/>
</g>
<defs>
<linearGradient id="paint0_linear_1_111" x1="6.7087e-05" y1="-19.3549" x2="159.442" y2="15.4048" gradientUnits="userSpaceOnUse">
<stop stop-color="#647B64"/>
<stop offset="1" stop-color="#6ADD6A"/>
</linearGradient>
<clipPath id="clip0_1_111">
<rect width="32" height="32" fill="white" transform="translate(21.0001 54) rotate(-90)"/>
</clipPath>
</defs>
</svg>
