<svg width="32" height="28" viewBox="0 0 32 28" fill="none" xmlns="http://www.w3.org/2000/svg">
<path d="M17.7393 0.0695202C17.4901 0.173485 17.3275 0.416091 17.3275 0.685313L17.3275 7.98819L0.666403 7.98819C0.298526 7.98819 -6.1896e-05 8.28678 -6.188e-05 8.65465L-6.14139e-05 19.3178C-6.13978e-05 19.6857 0.298526 19.9842 0.666403 19.9842L17.3275 19.9842L17.3275 27.3151C17.3275 27.5843 17.4902 27.8269 17.7381 27.9309C17.9873 28.0336 18.2739 27.9776 18.4645 27.787L31.8041 14.4914C31.9293 14.3661 32 14.1968 32 14.0195C32 13.8423 31.9293 13.673 31.8054 13.5477L18.4658 0.213472C18.2751 0.0228477 17.9886 -0.0344451 17.7393 0.0695202Z" fill="url(#paint0_linear_1_109)"/>
<defs>
<linearGradient id="paint0_linear_1_109" x1="-8.25815" y1="27.9816" x2="3.18969" y2="-32.11" gradientUnits="userSpaceOnUse">
<stop stop-color="#647B64"/>
<stop offset="1" stop-color="#6ADD6A"/>
</linearGradient>
</defs>
</svg>
